# xmcd
#
# Track frame offsets:
#	150
#	16229
#	30772
#	46933
#	62173
#	77179
#	92153
#	106451
#	120284
#	136610
#
# Disc length: 2012 seconds
#
# Revision: 0
# Processed by: cddbd v1.5.2PL0 Copyright (c) Steve Scherf et al.
# Submitted via: EasyCDDAExtractor 16.0.6.1
#
DISCID=6d07da0a
DTITLE=Συλλογικός δίσκος - Λαϊκό τραγούδι 1954-1967, 1956-2
DYEAR=2008
DGENRE=Λαϊκή
TTITLE0=Πάνου Πόλυ-Κλειδωνιάρης Αντώνης - Να πας να πεις της μάννας μου [Γιώργ
TTITLE0=ος Ζαμπέτας-Γιώργος Μητσάκης]
TTITLE1=Καζαντζίδης Στέλιος - Σαν την καλαμιά στον κάμπο [Μπάμπης Μπακάλης-Κώσ
TTITLE1=τας Βίρβος]
TTITLE2=Γαβαλάς Πάνος - Μάννα μου, μάννα μου [Πάνος Γαβαλάς]
TTITLE3=Μπιθικώτσης Γρηγόρης-Κωτσόγλου Ελένη - Σε νόμιζα για φίλο μου [Στέλιος
TTITLE3=Χρυσίνης-Χρήστος Κολοκοτρώνης]
TTITLE4=Γκρέϋ Καίτη - Ντρέπομαι την κοινωνία [Μανώλης Χιώτης-Χρήστος Κολοκοτρώ
TTITLE4=νης]
TTITLE5=Παγιουμτζής Στράτος - Κλάψε με μάννα μου γλυκιά [Μανώλης Χιώτης-Χρήστο
TTITLE5=ς Κολοκοτρώνης]
TTITLE6=Λύδια Γιώτα - Για ποιον χτυπά η καμπάνα [Θεόδωρος Δερβενιώτης-Χρ. Κολο
TTITLE6=κοτρώνης]
TTITLE7=Γαβαλάς Πάνος - Με πήρες στον λαιμό σου [Βασίλης Τσιτσάνης-Κώστας Μάνε
TTITLE7=σης]
TTITLE8=Πάνου Πόλυ - Μέσ' στο φτωχό σπιτάκι μου [Τάκης Λαβίδας]
TTITLE9=Λίντα Μαίρη-χορωδία - Γιατί, αγάπη μου, γιατί [Μανώλης Χιώτης]
EXTD=
EXTT0=
EXTT1=
EXTT2=
EXTT3=
EXTT4=
EXTT5=
EXTT6=
EXTT7=
EXTT8=
EXTT9=
PLAYORDER=
